PathFileType	3	(X/Y/Z)	C:\Users\koon_\Desktop\
DataRate	CameraRate	NumFrames	NumMarkers	Units	OrigDataRate	OrigDataStartFrame	OrigNumFrames
100.0	100.0	9	27	mm	100.0	308	2463	
Frame#	Time	get:LFHD			get:RFHD			get:LBHD			get:RBHD			get:C7			get:T10			get:CLAV			get:STRN			get:RBAK			get:LSHO			get:LUPA			get:LELB			get:LFRA			get:LWRA			get:LWRB			get:LFIN			get:RSHO			get:RUPA			get:RELB			get:RFRA			get:RWRA			get:RWRB			get:RFIN			get:LASI			get:RASI			get:LPSI			get:RPSI			
		X1	Y1	Z1	X2	Y2	Z2	X3	Y3	Z3	X4	Y4	Z4	X5	Y5	Z5	X6	Y6	Z6	X7	Y7	Z7	X8	Y8	Z8	X9	Y9	Z9	X10	Y10	Z10	X11	Y11	Z11	X12	Y12	Z12	X13	Y13	Z13	X14	Y14	Z14	X15	Y15	Z15	X16	Y16	Z16	X17	Y17	Z17	X18	Y18	Z18	X19	Y19	Z19	X20	Y20	Z20	X21	Y21	Z21	X22	Y22	Z22	X23	Y23	Z23	X24	Y24	Z24	X25	Y25	Z25	X26	Y26	Z26	X27	Y27	Z27	
308	3.07	109.09683	1556.877	-34.331108	-31.934723	1556.4465	-36.640518	88.111847	1555.0326	-195.40823	-41.892067	1530.3074	-201.35895	43.915516	1314.5511	-228.67047	31.692465	1114.827	-241.11397	43.524925	1286.682	-24.026461	46.482834	1090.0889	37.488243	-41.188805	1238.7767	-241.75739	155.10117	1353.3269	-158.46382	299.86475	1300.5964	-160.28535	413.2149	1246.0828	-180.74933	330.95844	1339.2383	-138.67226	297.50107	1400.9587	-96.05352	362.11902	1429.8998	-148.429	269.13779	1453.5321	-166.05032	-72.541969	1344.3575	-149.98326	-263.96387	1296.2866	-133.51624	-361.09125	1248.3191	-143.33495	-285.68994	1301.3347	-143.42859	-229.38809	1417.5062	-124.29485	-302.82706	1450.205	-136.21861	-223.36272	1487.5259	-184.81763	165.54845	887.52747	0.97070956	-102.61861	874.07617	-5.0127368	77.598854	941.64697	-218.7294	-12.742224	940.43127	-222.76712
309	3.08	109.08743	1556.8705	-34.256935	-31.928413	1556.4532	-36.539047	88.11248	1555.0313	-195.32269	-41.903053	1530.2972	-201.2581	43.965572	1314.6079	-228.6244	31.727839	1114.8668	-241.0825	43.511425	1286.6807	-23.86338	46.488365	1090.0735	37.543869	-41.188286	1238.7917	-241.6642	155.09874	1353.3453	-158.371	299.83066	1300.7012	-160.08609	413.39917	1246.098	-180.56325	331.83191	1339.8958	-138.51091	298.75473	1401.796	-95.885239	363.74905	1430.3929	-148.04002	270.99146	1454.6307	-165.97041	-72.5215	1344.3805	-149.94408	-263.99725	1296.3447	-133.53412	-361.17548	1248.3181	-143.47562	-285.90329	1301.5419	-143.33064	-230.09213	1418.0183	-124.15832	-303.65555	1450.4624	-136.17195	-224.22626	1488.0182	-184.7713	165.55125	887.52509	0.96746987	-102.58401	874.05164	-4.8729653	77.597908	941.64661	-218.72908	-12.741528	940.42566	-222.76151
310	3.09	109.10337	1556.8796	-34.159611	-31.928978	1556.434	-36.434422	88.099197	1555.0658	-195.21741	-41.926933	1530.3218	-201.17117	43.959282	1314.6127	-228.5603	31.712669	1114.9061	-241.03661	43.486603	1286.6608	-23.792807	46.447037	1090.0497	37.57518	-41.164734	1238.7917	-241.62051	155.04181	1353.3574	-158.2471	299.82526	1300.863	-159.97586	413.61209	1246.1206	-180.39095	332.89304	1340.6866	-138.30927	300.2601	1402.793	-95.675865	365.6756	1430.8795	-147.6017	273.50873	1456.132	-165.87924	-72.524666	1344.3932	-149.86395	-264.03226	1296.3861	-133.58865	-361.27887	1248.3304	-143.65402	-286.20621	1301.6636	-143.22878	-230.92964	1418.6106	-124.23975	-304.60648	1450.7251	-136.23009	-225.25908	1488.6515	-184.83453	165.55557	887.50928	0.96774125	-102.61529	874.05316	-4.9421353	77.643555	941.64081	-218.66408	-12.666905	940.42957	-222.76323
311	3.1	109.10066	1556.8549	-34.033497	-31.950794	1556.4292	-36.335388	88.099739	1555.0818	-195.09779	-41.939861	1530.397	-201.10173	43.944778	1314.6511	-228.52812	31.771461	1114.9475	-241.00029	43.494225	1286.6781	-23.735205	46.476177	1090.0542	37.587673	-41.171329	1238.8538	-241.63596	154.98479	1353.3669	-158.16182	299.73248	1301.0419	-159.83766	413.84561	1246.1167	-180.1817	334.10086	1341.5197	-138.09265	301.95892	1403.8933	-95.494736	367.82547	1431.4429	-147.0472	276.03384	1457.6238	-165.63785	-72.507935	1344.3934	-149.80286	-264.10217	1296.3696	-133.60716	-361.36682	1248.3121	-143.79773	-286.51843	1301.8142	-143.19446	-231.75397	1419.2454	-124.14668	-305.61374	1451.0298	-136.1424	-226.53041	1489.2717	-184.70215	165.54227	887.5213	1.0140761	-102.62277	874.03009	-5.0278497	77.692345	941.64941	-218.69151	-12.631756	940.40515	-222.72055
312	3.11	109.09494	1556.8499	-33.952194	-31.942007	1556.4464	-36.236057	88.040359	1555.1028	-195.01978	-41.976658	1530.4441	-201.04413	43.966156	1314.6874	-228.51898	31.770617	1114.9729	-240.94177	43.465584	1286.7092	-23.746662	46.448849	1090.0284	37.679737	-41.178001	1238.8331	-241.51123	154.91664	1353.4047	-158.05	299.67123	1301.2495	-159.69725	414.08688	1246.1162	-179.9836	335.53702	1342.5435	-137.88065	304.00214	1405.1354	-95.241531	370.31854	1432.1045	-146.47202	278.66211	1459.109	-165.41594	-72.535004	1344.405	-149.72166	-264.14215	1296.392	-133.57991	-361.49939	1248.2802	-143.95653	-286.80994	1301.8187	-143.34979	-232.81183	1419.9374	-124.14207	-306.77921	1451.3601	-136.20853	-227.92941	1490.0526	-184.62148	165.53745	887.49469	1.0491539	-102.64366	874.03235	-5.0439167	77.719048	941.66382	-218.66473	-12.614522	940.40802	-222.74112
313	3.12	109.07578	1556.8345	-33.854748	-31.908031	1556.4464	-36.061523	87.988762	1555.1406	-194.90472	-42.028446	1530.4811	-200.90063	43.913246	1314.6661	-228.42108	31.776577	1114.9768	-240.88129	43.451542	1286.6908	-23.664698	46.427601	1090.0254	37.665867	-41.230679	1238.8136	-241.46013	154.83054	1353.427	-157.9381	299.62952	1301.4332	-159.59738	414.38171	1246.1589	-179.78403	337.10162	1343.6802	-137.55704	306.24506	1406.5792	-94.923401	373.07147	1432.8506	-145.96973	281.79865	1461.0115	-165.08965	-72.562668	1344.3882	-149.57368	-264.26425	1296.416	-133.60007	-361.65216	1248.2292	-144.04671	-287.16837	1301.9707	-143.34407	-233.88766	1420.6813	-124.00123	-308.04788	1451.6646	-136.16721	-229.43999	1490.7655	-184.52162	165.53728	887.47345	1.0889175	-102.66945	874.03638	-5.025754	77.76474	941.6507	-218.64781	-12.577074	940.40265	-222.71007
314	3.13	109.07195	1556.8104	-33.777802	-31.911428	1556.4185	-35.887028	87.917992	1555.1583	-194.7821	-42.102516	1530.5238	-200.72258	43.884769	1314.7188	-228.41267	31.768959	1115.0466	-240.89134	43.394775	1286.724	-23.567175	46.411636	1090.0293	37.752728	-41.256733	1238.8296	-241.40163	154.76559	1353.4803	-157.81319	299.56604	1301.6211	-159.50414	414.36682	1246.0986	-179.24609	338.89343	1344.9331	-137.31494	308.81448	1408.1466	-94.582504	376.07883	1433.6503	-145.36958	285.17892	1463.1464	-164.87779	-72.583611	1344.3914	-149.5174	-264.38901	1296.4241	-133.62666	-361.8053	1248.1764	-144.22079	-287.60858	1302.162	-143.31931	-235.1942	1421.5544	-124.0029	-309.53561	1451.9915	-136.13417	-231.13469	1491.7543	-184.5647	165.50911	887.49408	1.1363086	-102.66817	874.03448	-5.0165915	77.822029	941.68542	-218.62383	-12.530425	940.42017	-222.69421
315	3.14	109.04253	1556.8348	-33.643368	-31.918026	1556.4445	-35.753185	87.860062	1555.192	-194.70099	-42.174076	1530.5267	-200.53671	43.845016	1314.7548	-228.37349	31.76321	1115.0304	-240.72128	43.352058	1286.7513	-23.545465	46.389153	1090.0209	37.749989	-41.3181	1238.865	-241.41409	154.66838	1353.4883	-157.68933	299.53076	1301.7977	-159.41878	414.75323	1246.1833	-179.03839	340.85696	1346.2959	-136.92874	311.60272	1409.7921	-94.226601	379.36697	1434.4888	-144.8078	289.10294	1465.1915	-164.35324	-72.61216	1344.4022	-149.46788	-264.51401	1296.4714	-133.66101	-362.0119	1248.0289	-144.27489	-288.21573	1302.4418	-143.3192	-236.5976	1422.446	-123.99535	-311.20026	1452.3712	-136.09932	-233.05592	1492.7927	-184.59111	165.49261	887.49622	1.1596534	-102.64872	874.03595	-5.0177164	77.84388	941.6778	-218.55829	-12.435131	940.46301	-222.72165
316	3.15	109.05464	1556.8112	-33.593479	-31.922281	1556.4595	-35.582123	87.760727	1555.2285	-194.6158	-42.289185	1530.5444	-200.33173	43.734501	1314.7883	-228.31581	31.772144	1115.084	-240.78757	43.272472	1286.75	-23.475431	46.370884	1090.02	37.780376	-41.393944	1238.9076	-241.40443	154.57497	1353.5319	-157.57607	299.26886	1301.9656	-158.96573	415.41687	1246.407	-179.07535	343.13312	1347.7338	-136.63693	314.79779	1411.6108	-93.793251	383.06335	1435.356	-144.1942	293.32285	1467.5067	-163.92375	-72.671844	1344.4036	-149.37401	-264.63678	1296.5096	-133.66547	-362.19406	1247.9377	-144.38916	-288.80344	1302.7803	-143.33266	-238.22737	1423.4626	-123.90993	-312.99051	1452.7753	-136.08546	-235.21564	1493.7582	-184.43718	165.49008	887.46252	1.159052	-102.6638	874.0354	-5.0938354	77.901176	941.70569	-218.58508	-12.381433	940.44196	-222.69162
